<svg xmlns="http://www.w3.org/2000/svg" width="400" height="500" viewBox="0 0 400 500">
  <defs><clipPath id="hair-front"><path d="M 151.0 206.5 Q 140.7 188.1 137.6 167.0 Q 137.0 141.9 140.5 115.2 Q 160.4 109.1 178.8 99.3 Q 194.4 89.8 206.9 75.7 Q 216.0 90.7 229.6 101.4 Q 242.0 110.2 256.4 116.2 Q 259.7 140.2 259.3 163.9 Q 259.0 165.3 252.9 165.3 Q 259.1 165.3 259.1 166.9 Q 255.8 188.6 245.5 206.6 Q 246.7 206.5 247.8 206.4 Q 259.5 206.1 267.7 200.9 Q 275.8 206.3 275.9 203.6 Q 280.7 201.5 284.9 198.7 Q 288.5 195.6 290.1 191.4 Q 282.8 126.0 279.9 95.3 Q 276.0 79.9 267.5 66.2 Q 259.1 54.1 247.2 45.2 Q 237.4 38.4 226.0 35.3 Q 209.4 32.5 192.7 31.0 Q 177.0 31.6 162.2 37.8 Q 151.4 43.2 142.2 51.0 Q 132.9 59.9 126.3 71.0 Q 120.3 82.2 117.0 94.5 Q 113.6 126.6 106.5 191.6 Q 108.3 195.7 112.0 198.8 Q 115.8 201.9 121.1 203.7 Q 121.5 206.1 129.3 201.2 Q 137.2 205.4 147.3 206.6 Q 149.2 206.5 151.0 206.5 Z" /></clipPath></defs>
  <path d="M 147.3 206.6 Q 137.2 205.4 129.3 201.2 Q 121.5 206.1 121.1 203.7 Q 115.8 201.9 112.0 198.8 Q 108.3 195.7 106.5 191.6 Q 113.6 126.6 117.0 94.5 Q 120.3 82.2 126.3 71.0 Q 132.9 59.9 142.2 51.0 Q 151.4 43.2 162.2 37.8 Q 177.0 31.6 192.7 31.0 Q 209.4 32.5 226.0 35.3 Q 237.4 38.4 247.2 45.2 Q 259.1 54.1 267.5 66.2 Q 276.0 79.9 279.9 95.3 Q 282.8 126.0 290.1 191.4 Q 288.5 195.6 284.9 198.7 Q 280.7 201.5 275.9 203.6 Q 275.8 206.3 267.7 200.9 Q 259.5 206.1 247.8 206.4 Q 197.6 217.4 147.3 206.6 Z" fill="#a85a35" /><path d="M 147.3 206.6 Q 137.2 205.4 129.3 201.2 Q 121.5 206.1 121.1 203.7 Q 115.8 201.9 112.0 198.8 Q 108.3 195.7 106.5 191.6 Q 113.6 126.6 117.0 94.5 Q 120.3 82.2 126.3 71.0 Q 132.9 59.9 142.2 51.0 Q 151.4 43.2 162.2 37.8 Q 177.0 31.6 192.7 31.0 Q 209.4 32.5 226.0 35.3 Q 237.4 38.4 247.2 45.2 Q 259.1 54.1 267.5 66.2 Q 276.0 79.9 279.9 95.3 Q 282.8 126.0 290.1 191.4 Q 288.5 195.6 284.9 198.7 Q 280.7 201.5 275.9 203.6 Q 275.8 206.3 267.7 200.9 Q 259.5 206.1 247.8 206.4 Q 197.6 217.4 147.3 206.6 Z" fill="none" stroke="#0d0d0d" stroke-width="2.16" stroke-linecap="round" stroke-linejoin="round" />
  <path d="M 181.9 199.2 Q 168.2 215.1 140.7 223.6 Q 136.4 224.9 136.4 229.2 Q 136.4 235.6 149.8 235.6 L 154.6 235.6 L 154.6 231.3 L 163.2 231.3 Q 161.9 240.4 162.0 245.0 Q 162.0 248.1 164.3 249.4 Q 166.5 250.7 166.6 253.9 Q 167.3 277.5 169.8 297.9 Q 169.8 318.7 169.8 335.7 L 194.2 335.7 L 200.0 335.7 L 205.8 335.7 L 230.2 335.7 Q 230.2 318.7 230.2 297.9 Q 232.7 277.5 233.4 253.9 Q 233.5 250.7 235.7 249.4 Q 238.0 248.1 238.0 245.0 Q 238.1 240.4 236.8 235.6 L 236.8 231.3 L 245.4 231.3 L 245.4 235.6 L 250.2 235.6 Q 263.6 235.6 263.6 229.2 Q 263.6 224.9 259.3 223.6 Q 239.4 206.9 218.1 199.2 Z" fill="#e0c0a4" stroke="#0d0d0d" stroke-width="2.16" />
  <rect x="181.9" y="172.5" width="36.3" height="38.0" rx="12.7" fill="#e0c0a4" /><line x1="181.9" y1="172.5" x2="181.9" y2="199.2" stroke="#0d0d0d" stroke-width="2.16" /><line x1="218.1" y1="172.5" x2="218.1" y2="199.2" stroke="#0d0d0d" stroke-width="2.16" />
  <path d="M 163.7 332.9 L 236.3 332.9 Q 236.3 377.8 236.2 397.0 Q 236.1 419.4 234.9 461.1 L 209.2 461.1 Q 207.8 397.0 200.0 350.8 Q 192.2 397.0 190.8 461.1 L 165.1 461.1 Q 163.9 419.4 163.8 397.0 Q 163.7 377.8 163.7 332.9 Z" fill="#e0c0a4" stroke="#0d0d0d" stroke-width="1.83" stroke-linejoin="round" /><path d="M 163.7 332.9 L 236.3 332.9 L 229.8 358.2 Q 200.0 361.0 170.2 358.2 Z" fill="#e8e4dc" stroke="#0d0d0d" stroke-width="1.83" stroke-linejoin="round" /><path d="M 192.1 418.8 L 192.1 461.1 Q 192.4 468.3 192.4 479.7 Q 192.4 485.0 187.1 485.0 L 158.9 485.0 Q 153.6 485.0 153.6 478.7 Q 154.6 471.2 159.6 467.3 Q 163.0 464.9 163.8 461.1 L 163.8 418.8 Z" fill="#6b5541" stroke="#0d0d0d" stroke-width="2.16" /><path d="M 192.4 479.3 L 153.6 479.3 L 153.6 479.7 Q 153.6 485.0 158.9 485.0 L 187.1 485.0 Q 192.4 485.0 192.4 479.7 Z" fill="#4b3a2b" /><rect x="163.8" y="418.8" width="28.3" height="14.4" fill="#534130" stroke="#0d0d0d" stroke-width="1.11" /><path d="M 170.9 433.2 L 185.0 433.2 Q 184.0 470.7 178.0 472.6 Q 171.9 470.7 170.9 433.2 Z" fill="#5e4936" stroke="#0d0d0d" stroke-width="0.87" /><line x1="185.3" y1="437.8" x2="170.6" y2="449.3" stroke="#30251c" stroke-width="0.63" stroke-linecap="round" /><line x1="170.6" y1="437.8" x2="185.3" y2="449.3" stroke="#30251c" stroke-width="0.63" stroke-linecap="round" /><line x1="185.3" y1="449.3" x2="170.6" y2="460.7" stroke="#30251c" stroke-width="0.63" stroke-linecap="round" /><line x1="170.6" y1="449.3" x2="185.3" y2="460.7" stroke="#30251c" stroke-width="0.63" stroke-linecap="round" /><line x1="185.3" y1="460.7" x2="170.6" y2="472.1" stroke="#30251c" stroke-width="0.63" stroke-linecap="round" /><line x1="170.6" y1="460.7" x2="185.3" y2="472.1" stroke="#30251c" stroke-width="0.63" stroke-linecap="round" /><path d="M 207.9 418.8 L 207.9 461.1 Q 207.6 468.3 207.6 479.7 Q 207.6 485.0 212.9 485.0 L 241.1 485.0 Q 246.4 485.0 246.4 478.7 Q 245.4 471.2 240.4 467.3 Q 237.0 464.9 236.2 461.1 L 236.2 418.8 Z" fill="#6b5541" stroke="#0d0d0d" stroke-width="2.16" /><path d="M 207.6 479.3 L 246.4 479.3 L 246.4 479.7 Q 246.4 485.0 241.1 485.0 L 212.9 485.0 Q 207.6 485.0 207.6 479.7 Z" fill="#4b3a2b" /><rect x="207.9" y="418.8" width="28.3" height="14.4" fill="#534130" stroke="#0d0d0d" stroke-width="1.11" /><path d="M 215.0 433.2 L 229.1 433.2 Q 228.1 470.7 222.0 472.6 Q 216.0 470.7 215.0 433.2 Z" fill="#5e4936" stroke="#0d0d0d" stroke-width="0.87" /><line x1="229.4" y1="437.8" x2="214.7" y2="449.3" stroke="#30251c" stroke-width="0.63" stroke-linecap="round" /><line x1="214.7" y1="437.8" x2="229.4" y2="449.3" stroke="#30251c" stroke-width="0.63" stroke-linecap="round" /><line x1="229.4" y1="449.3" x2="214.7" y2="460.7" stroke="#30251c" stroke-width="0.63" stroke-linecap="round" /><line x1="214.7" y1="449.3" x2="229.4" y2="460.7" stroke="#30251c" stroke-width="0.63" stroke-linecap="round" /><line x1="229.4" y1="460.7" x2="214.7" y2="472.1" stroke="#30251c" stroke-width="0.63" stroke-linecap="round" /><line x1="214.7" y1="460.7" x2="229.4" y2="472.1" stroke="#30251c" stroke-width="0.63" stroke-linecap="round" />
  <path d="M 162.2 297.9 L 133.3 412.2 Q 133.3 421.2 160.0 421.2 Q 200.0 428.9 240.0 421.2 Q 266.7 421.2 266.7 412.2 L 237.8 297.9 Z" fill="#4f5347" stroke="#0d0d0d" stroke-width="2.16" /><path d="M 133.3 412.2 L 133.3 412.2 Q 133.3 421.2 160.0 421.2 Q 200.0 428.9 240.0 421.2 Q 266.7 421.2 266.7 412.2 L 266.7 412.2 Z" fill="#3f4238" opacity="0.7" /><line x1="142.9" y1="404.5" x2="142.9" y2="412.2" stroke="#3f4238" stroke-width="0.71" opacity="0.75" /><line x1="161.9" y1="404.5" x2="161.9" y2="412.2" stroke="#3f4238" stroke-width="0.71" opacity="0.75" /><line x1="181.0" y1="404.5" x2="181.0" y2="412.2" stroke="#3f4238" stroke-width="0.71" opacity="0.75" /><line x1="200.0" y1="404.5" x2="200.0" y2="412.2" stroke="#3f4238" stroke-width="0.71" opacity="0.75" /><line x1="219.0" y1="404.5" x2="219.0" y2="412.2" stroke="#3f4238" stroke-width="0.71" opacity="0.75" /><line x1="238.1" y1="404.5" x2="238.1" y2="412.2" stroke="#3f4238" stroke-width="0.71" opacity="0.75" /><line x1="257.1" y1="404.5" x2="257.1" y2="412.2" stroke="#3f4238" stroke-width="0.71" opacity="0.75" />
  <path d="M 162.2 297.9 L 122.5 395.5 Q 122.5 404.5 153.5 404.5 L 246.5 404.5 Q 277.5 404.5 277.5 395.5 L 237.8 297.9 Z" fill="#7a705c" stroke="#0d0d0d" stroke-width="2.16" /><line x1="180.4" y1="329.9" x2="155.0" y2="404.5" stroke="#625948" stroke-width="0.71" opacity="0.7" /><line x1="211.3" y1="329.9" x2="227.9" y2="404.5" stroke="#625948" stroke-width="0.71" opacity="0.7" />
  <path d="M 175.8 186.5 Q 163.7 206.5 134.1 215.3 Q 127.4 216.3 133.1 219.8 L 158.9 235.6 Q 157.6 240.3 157.6 245.0 Q 158.1 273.8 165.5 297.9 Q 149.2 317.1 149.2 332.9 L 250.8 332.9 Q 250.8 317.1 234.5 297.9 Q 241.9 273.8 242.4 245.0 Q 242.4 240.3 241.1 235.6 L 266.9 219.8 Q 272.6 216.3 265.9 215.3 Q 245.0 198.3 224.2 186.5 L 218.1 186.5 L 218.1 190.5 L 200.0 210.7 L 181.9 190.5 L 181.9 186.5 Z" fill="#9c8f76" stroke="#0d0d0d" stroke-width="2.16" />
  <path d="M 157.6 245.0 L 157.9 245.8 L 158.2 246.5 L 158.6 247.2 L 159.0 247.9 L 159.5 248.6 L 160.1 249.2 L 160.8 249.8 L 161.5 250.4 L 162.2 251.0 L 163.0 251.6 L 163.9 252.2 L 164.9 252.7 L 165.9 253.2 L 167.0 253.6 L 168.2 254.0 L 169.4 254.3 L 170.6 254.5 L 171.8 254.8 L 173.1 254.9 L 174.4 255.0 L 175.8 255.1 L 177.1 255.0 L 178.4 255.0 L 179.7 254.8 L 180.9 254.6 L 182.2 254.4 L 183.4 254.1 L 184.5 253.7 L 185.7 253.4 L 186.8 253.0 L 187.8 252.5 L 188.8 252.1 L 189.7 251.5 L 190.5 251.0 L 191.3 250.4 L 192.0 249.7 L 192.6 249.1 L 193.2 248.4 L 193.6 247.6 L 194.0 246.9 L 194.0 246.9 L 193.9 247.8 L 193.6 248.6 L 193.2 249.5 L 192.6 250.3 L 192.0 251.1 L 191.3 251.9 L 190.5 252.6 L 189.6 253.3 L 188.6 254.0 L 187.5 254.6 L 186.4 255.1 L 185.2 255.7 L 183.9 256.0 L 182.6 256.4 L 181.3 256.6 L 179.9 256.9 L 178.5 257.0 L 177.1 257.1 L 175.7 257.1 L 174.3 257.1 L 172.9 257.0 L 171.6 256.8 L 170.2 256.6 L 168.9 256.3 L 167.6 255.9 L 166.3 255.5 L 165.1 255.0 L 164.0 254.5 L 162.9 254.0 L 161.9 253.3 L 161.0 252.7 L 160.1 251.9 L 159.3 251.2 L 158.7 250.3 L 158.3 249.4 L 157.9 248.5 L 157.6 247.6 L 157.5 246.7 L 157.5 245.8 L 157.6 245.0 Z" fill="#0d0d0d" stroke="none" /><path d="M 242.4 245.0 L 242.1 245.8 L 241.8 246.5 L 241.4 247.2 L 241.0 247.9 L 240.5 248.6 L 239.9 249.2 L 239.2 249.8 L 238.5 250.4 L 237.8 251.0 L 237.0 251.6 L 236.1 252.2 L 235.1 252.7 L 234.1 253.2 L 233.0 253.6 L 231.8 254.0 L 230.6 254.3 L 229.4 254.5 L 228.2 254.8 L 226.9 254.9 L 225.6 255.0 L 224.2 255.1 L 222.9 255.0 L 221.6 255.0 L 220.3 254.8 L 219.1 254.6 L 217.8 254.4 L 216.6 254.1 L 215.5 253.7 L 214.3 253.4 L 213.2 253.0 L 212.2 252.5 L 211.2 252.1 L 210.3 251.5 L 209.5 251.0 L 208.7 250.4 L 208.0 249.7 L 207.4 249.1 L 206.8 248.4 L 206.4 247.6 L 206.0 246.9 L 206.0 246.9 L 206.1 247.8 L 206.4 248.6 L 206.8 249.5 L 207.4 250.3 L 208.0 251.1 L 208.7 251.9 L 209.5 252.6 L 210.4 253.3 L 211.4 254.0 L 212.5 254.6 L 213.6 255.1 L 214.8 255.7 L 216.1 256.0 L 217.4 256.4 L 218.7 256.6 L 220.1 256.9 L 221.5 257.0 L 222.9 257.1 L 224.3 257.1 L 225.7 257.1 L 227.1 257.0 L 228.4 256.8 L 229.8 256.6 L 231.1 256.3 L 232.4 255.9 L 233.7 255.5 L 234.9 255.0 L 236.0 254.5 L 237.1 254.0 L 238.1 253.3 L 239.0 252.7 L 239.9 251.9 L 240.7 251.2 L 241.3 250.3 L 241.7 249.4 L 242.1 248.5 L 242.4 247.6 L 242.5 246.7 L 242.5 245.8 L 242.4 245.0 Z" fill="#0d0d0d" stroke="none" />
  <path d="M 166.2 283.9 L 162.1 346.3 Q 162.1 351.6 167.4 351.6 L 232.6 351.6 Q 237.9 351.6 237.9 346.3 L 233.8 283.9 Z" fill="#6b5a48" stroke="#0d0d0d" stroke-width="2.16" />
  <rect x="164.5" y="292.8" width="71.0" height="14.7" rx="2.6" fill="#5b4a3c" stroke="#0d0d0d" stroke-width="2.16" /><rect x="164.5" y="301.9" width="71.0" height="5.6" rx="2.6" fill="#493a2e" opacity="0.8" /><rect x="193.8" y="300.8" width="12.3" height="8.1" rx="2.8" fill="#4e3e31" stroke="#0d0d0d" stroke-width="1.51" /><path d="M 194.9 306.5 L 199.3 306.5 L 197.8 330.6 L 193.4 330.6 Z" fill="#4e3e31" stroke="#0d0d0d" stroke-width="1.51" /><path d="M 200.7 306.5 L 205.1 306.5 L 206.6 325.7 L 202.2 325.7 Z" fill="#4e3e31" stroke="#0d0d0d" stroke-width="1.51" />
  <rect x="158.4" y="300.8" width="20.2" height="21.3" rx="3.6" fill="#4f4133" stroke="#0d0d0d" stroke-width="1.83" /><rect x="158.4" y="300.8" width="20.2" height="9.4" rx="3.6" fill="#413428" stroke="#0d0d0d" stroke-width="1.83" /><circle cx="168.5" cy="310.2" r="2.0" fill="#282018" /><rect x="221.4" y="300.8" width="20.2" height="21.3" rx="3.6" fill="#4f4133" stroke="#0d0d0d" stroke-width="1.83" /><rect x="221.4" y="300.8" width="20.2" height="9.4" rx="3.6" fill="#413428" stroke="#0d0d0d" stroke-width="1.83" /><circle cx="231.5" cy="310.2" r="2.0" fill="#282018" />
  <path d="M 158.9 235.6 L 132.1 219.2 Q 131.7 262.5 129.6 297.9 Q 124.1 320.8 124.9 343.6 L 150.8 343.6 Q 151.6 320.8 156.0 297.9 Q 159.3 269.9 158.9 235.6 Z" fill="#9c8f76" stroke="#0d0d0d" stroke-width="2.16" /><path d="M 124.2 336.5 L 151.5 336.5 L 150.8 343.6 L 124.9 343.6 Z" fill="#7d725c" stroke="#0d0d0d" stroke-width="1.83" /><path d="M 124.6 343.6 Q 122.8 354.4 128.4 363.2 Q 137.9 366.3 146.8 362.6 Q 151.3 359.3 149.2 355.3 Q 155.3 353.4 152.7 349.1 Q 150.8 346.7 151.1 343.6 Z" fill="#e0c0a4" stroke="#0d0d0d" stroke-width="1.83" /><path d="M 241.1 235.6 L 267.9 219.2 Q 268.3 262.5 270.4 297.9 Q 275.9 320.8 275.1 343.6 L 249.2 343.6 Q 248.4 320.8 244.0 297.9 Q 240.7 269.9 241.1 235.6 Z" fill="#9c8f76" stroke="#0d0d0d" stroke-width="2.16" /><path d="M 248.5 336.5 L 275.8 336.5 L 275.1 343.6 L 249.2 343.6 Z" fill="#7d725c" stroke="#0d0d0d" stroke-width="1.83" /><path d="M 275.4 343.6 Q 277.2 354.4 271.6 363.2 Q 262.1 366.3 253.2 362.6 Q 248.7 359.3 250.8 355.3 Q 244.7 353.4 247.3 349.1 Q 249.2 346.7 248.9 343.6 Z" fill="#e0c0a4" stroke="#0d0d0d" stroke-width="1.83" />
  <defs><mask id="bust-73a4426f7d" maskUnits="userSpaceOnUse" x="0" y="0" width="400" height="500"><path d="M 158.9 235.6 Q 157.6 240.3 157.6 245.0 Q 158.1 273.8 165.5 297.9 L 168.4 297.9 Q 164.9 269.9 164.9 235.6 Z M 241.1 235.6 Q 242.4 240.3 242.4 245.0 Q 241.9 273.8 234.5 297.9 L 231.6 297.9 Q 235.1 269.9 235.1 235.6 Z" fill="white" /></mask><clipPath id="bust-arms-6b6698fcf7"><path d="M 158.9 235.6 L 132.1 219.2 Q 131.7 262.5 129.6 297.9 Q 124.1 320.8 124.9 343.6 L 150.8 343.6 Q 151.6 320.8 156.0 297.9 Q 159.3 269.9 158.9 235.6 Z" /><path d="M 241.1 235.6 L 267.9 219.2 Q 268.3 262.5 270.4 297.9 Q 275.9 320.8 275.1 343.6 L 249.2 343.6 Q 248.4 320.8 244.0 297.9 Q 240.7 269.9 241.1 235.6 Z" /></clipPath></defs><g mask="url(#bust-73a4426f7d)"><path d="M 175.8 186.5 Q 163.7 206.5 134.1 215.3 Q 127.4 216.3 133.1 219.8 L 158.9 235.6 Q 157.6 240.3 157.6 245.0 Q 158.1 273.8 165.5 297.9 Q 149.2 317.1 149.2 332.9 L 250.8 332.9 Q 250.8 317.1 234.5 297.9 Q 241.9 273.8 242.4 245.0 Q 242.4 240.3 241.1 235.6 L 266.9 219.8 Q 272.6 216.3 265.9 215.3 Q 245.0 198.3 224.2 186.5 L 218.1 186.5 L 218.1 190.5 L 200.0 210.7 L 181.9 190.5 L 181.9 186.5 Z" fill="#9c8f76" stroke="#0d0d0d" stroke-width="2.16" /><path d="M 157.6 245.0 L 157.9 245.8 L 158.2 246.5 L 158.6 247.2 L 159.0 247.9 L 159.5 248.6 L 160.1 249.2 L 160.8 249.8 L 161.5 250.4 L 162.2 251.0 L 163.0 251.6 L 163.9 252.2 L 164.9 252.7 L 165.9 253.2 L 167.0 253.6 L 168.2 254.0 L 169.4 254.3 L 170.6 254.5 L 171.8 254.8 L 173.1 254.9 L 174.4 255.0 L 175.8 255.1 L 177.1 255.0 L 178.4 255.0 L 179.7 254.8 L 180.9 254.6 L 182.2 254.4 L 183.4 254.1 L 184.5 253.7 L 185.7 253.4 L 186.8 253.0 L 187.8 252.5 L 188.8 252.1 L 189.7 251.5 L 190.5 251.0 L 191.3 250.4 L 192.0 249.7 L 192.6 249.1 L 193.2 248.4 L 193.6 247.6 L 194.0 246.9 L 194.0 246.9 L 193.9 247.8 L 193.6 248.6 L 193.2 249.5 L 192.6 250.3 L 192.0 251.1 L 191.3 251.9 L 190.5 252.6 L 189.6 253.3 L 188.6 254.0 L 187.5 254.6 L 186.4 255.1 L 185.2 255.7 L 183.9 256.0 L 182.6 256.4 L 181.3 256.6 L 179.9 256.9 L 178.5 257.0 L 177.1 257.1 L 175.7 257.1 L 174.3 257.1 L 172.9 257.0 L 171.6 256.8 L 170.2 256.6 L 168.9 256.3 L 167.6 255.9 L 166.3 255.5 L 165.1 255.0 L 164.0 254.5 L 162.9 254.0 L 161.9 253.3 L 161.0 252.7 L 160.1 251.9 L 159.3 251.2 L 158.7 250.3 L 158.3 249.4 L 157.9 248.5 L 157.6 247.6 L 157.5 246.7 L 157.5 245.8 L 157.6 245.0 Z" fill="#0d0d0d" stroke="none" /><path d="M 242.4 245.0 L 242.1 245.8 L 241.8 246.5 L 241.4 247.2 L 241.0 247.9 L 240.5 248.6 L 239.9 249.2 L 239.2 249.8 L 238.5 250.4 L 237.8 251.0 L 237.0 251.6 L 236.1 252.2 L 235.1 252.7 L 234.1 253.2 L 233.0 253.6 L 231.8 254.0 L 230.6 254.3 L 229.4 254.5 L 228.2 254.8 L 226.9 254.9 L 225.6 255.0 L 224.2 255.1 L 222.9 255.0 L 221.6 255.0 L 220.3 254.8 L 219.1 254.6 L 217.8 254.4 L 216.6 254.1 L 215.5 253.7 L 214.3 253.4 L 213.2 253.0 L 212.2 252.5 L 211.2 252.1 L 210.3 251.5 L 209.5 251.0 L 208.7 250.4 L 208.0 249.7 L 207.4 249.1 L 206.8 248.4 L 206.4 247.6 L 206.0 246.9 L 206.0 246.9 L 206.1 247.8 L 206.4 248.6 L 206.8 249.5 L 207.4 250.3 L 208.0 251.1 L 208.7 251.9 L 209.5 252.6 L 210.4 253.3 L 211.4 254.0 L 212.5 254.6 L 213.6 255.1 L 214.8 255.7 L 216.1 256.0 L 217.4 256.4 L 218.7 256.6 L 220.1 256.9 L 221.5 257.0 L 222.9 257.1 L 224.3 257.1 L 225.7 257.1 L 227.1 257.0 L 228.4 256.8 L 229.8 256.6 L 231.1 256.3 L 232.4 255.9 L 233.7 255.5 L 234.9 255.0 L 236.0 254.5 L 237.1 254.0 L 238.1 253.3 L 239.0 252.7 L 239.9 251.9 L 240.7 251.2 L 241.3 250.3 L 241.7 249.4 L 242.1 248.5 L 242.4 247.6 L 242.5 246.7 L 242.5 245.8 L 242.4 245.0 Z" fill="#0d0d0d" stroke="none" /><path d="M 166.2 283.9 L 162.1 346.3 Q 162.1 351.6 167.4 351.6 L 232.6 351.6 Q 237.9 351.6 237.9 346.3 L 233.8 283.9 Z" fill="#6b5a48" stroke="#0d0d0d" stroke-width="2.16" /><rect x="164.5" y="292.8" width="71.0" height="14.7" rx="2.6" fill="#5b4a3c" stroke="#0d0d0d" stroke-width="2.16" /><rect x="164.5" y="301.9" width="71.0" height="5.6" rx="2.6" fill="#493a2e" opacity="0.8" /><rect x="193.8" y="300.8" width="12.3" height="8.1" rx="2.8" fill="#4e3e31" stroke="#0d0d0d" stroke-width="1.51" /><path d="M 194.9 306.5 L 199.3 306.5 L 197.8 330.6 L 193.4 330.6 Z" fill="#4e3e31" stroke="#0d0d0d" stroke-width="1.51" /><path d="M 200.7 306.5 L 205.1 306.5 L 206.6 325.7 L 202.2 325.7 Z" fill="#4e3e31" stroke="#0d0d0d" stroke-width="1.51" /><rect x="158.4" y="300.8" width="20.2" height="21.3" rx="3.6" fill="#4f4133" stroke="#0d0d0d" stroke-width="1.83" /><rect x="158.4" y="300.8" width="20.2" height="9.4" rx="3.6" fill="#413428" stroke="#0d0d0d" stroke-width="1.83" /><circle cx="168.5" cy="310.2" r="2.0" fill="#282018" /><rect x="221.4" y="300.8" width="20.2" height="21.3" rx="3.6" fill="#4f4133" stroke="#0d0d0d" stroke-width="1.83" /><rect x="221.4" y="300.8" width="20.2" height="9.4" rx="3.6" fill="#413428" stroke="#0d0d0d" stroke-width="1.83" /><circle cx="231.5" cy="310.2" r="2.0" fill="#282018" /></g><path d="M 158.9 235.6 Q 157.6 240.3 157.6 245.0 Q 158.1 273.8 165.5 297.9  M 241.1 235.6 Q 242.4 240.3 242.4 245.0 Q 241.9 273.8 234.5 297.9 " fill="none" stroke="#0d0d0d" stroke-width="2.16" stroke-linecap="round" clip-path="url(#bust-arms-6b6698fcf7)" />
  <path d="M 200.0 47.9 Q 225.1 47.9 242.9 67.6 Q 260.6 87.3 259.3 115.2 Q 255.6 143.9 237.0 164.7 Q 220.1 185.9 200.0 185.9 Q 179.9 185.9 163.0 164.7 Q 144.4 143.9 140.7 115.2 Q 139.4 87.3 157.1 67.6 Q 174.9 47.9 200.0 47.9 Z" fill="#e0c0a4" /><path d="M 163.0 164.7 Q 144.4 143.9 140.7 115.2 Q 139.4 87.3 157.1 67.6 Q 174.9 47.9 200.0 47.9 Q 225.1 47.9 242.9 67.6 Q 260.6 87.3 259.3 115.2 Q 255.6 143.9 237.0 164.7" fill="none" stroke="#0d0d0d" stroke-width="2.16" stroke-linecap="round" /><path d="M 237.0 164.7 Q 220.1 185.9 200.0 185.9 Q 179.9 185.9 163.0 164.7" fill="none" stroke="#0d0d0d" stroke-width="0.95" stroke-linecap="round" />
  <line x1="187.7" y1="113.7" x2="159.6" y2="109.8" stroke="#4c2614" stroke-width="2.29" stroke-linecap="round" /><defs><clipPath id="eye-l"><path d="M 190.5 130.5 Q 182.9 122.1 172.8 122.1 Q 163.6 122.1 156.7 129.6 Q 164.7 141.7 175.3 141.7 Q 184.0 141.7 190.5 130.5 Z" /></clipPath></defs><path d="M 190.5 130.5 Q 182.9 122.1 172.8 122.1 Q 163.6 122.1 156.7 129.6 Q 164.7 141.7 175.3 141.7 Q 184.0 141.7 190.5 130.5 Z" fill="white" stroke="none" /><g clip-path="url(#eye-l)"><circle cx="173.6" cy="131.0" r="9.3" fill="#5a4217" /><circle cx="173.6" cy="131.0" r="7.8" fill="#c9963f" /><path d="M 166.09 129.03 A 7.78 7.78 0 0 1 181.15 129.03 Z" fill="#896323" /><circle cx="173.6" cy="131.9" r="4.2" fill="#241a09" /><circle cx="169.7" cy="126.5" r="3.1" fill="white" /><circle cx="176.9" cy="134.9" r="1.5" fill="white" opacity="0.85" /></g><path d="M 156.74 129.62 L 157.74 131.08 L 158.77 132.45 L 159.81 133.72 L 160.87 134.90 L 161.96 135.98 L 163.06 136.97 L 164.19 137.86 L 165.34 138.67 L 166.51 139.37 L 167.71 139.98 L 168.92 140.50 L 170.16 140.93 L 171.41 141.26 L 172.69 141.49 L 173.99 141.63 L 175.31 141.68 L 176.39 141.64 L 177.45 141.51 L 178.50 141.29 L 179.53 140.98 L 180.54 140.59 L 181.53 140.10 L 182.51 139.53 L 183.47 138.88 L 184.41 138.13 L 185.33 137.30 L 186.23 136.38 L 187.12 135.37 L 187.99 134.27 L 188.85 133.09 L 189.68 131.82 L 190.50 130.46" fill="none" stroke="#0d0d0d" stroke-width="1.27" stroke-linecap="round" /><path d="M 156.74 129.62 L 157.74 131.08 L 158.77 132.45 L 159.81 133.72 L 160.87 134.90 L 161.96 135.98 L 163.06 136.97 L 164.19 137.86 L 165.34 138.67" fill="none" stroke="#0d0d0d" stroke-width="1.47" stroke-linecap="round" /><path d="M 191.17 129.83 L 190.20 128.81 L 189.19 127.83 L 188.17 126.92 L 187.12 126.08 L 186.04 125.30 L 184.97 124.56 L 183.88 123.86 L 182.76 123.22 L 181.61 122.64 L 180.43 122.13 L 179.23 121.68 L 177.99 121.29 L 176.73 120.97 L 175.44 120.71 L 174.12 120.52 L 172.78 120.40 L 171.54 120.34 L 170.32 120.35 L 169.10 120.41 L 167.88 120.54 L 166.68 120.74 L 165.48 121.01 L 164.29 121.34 L 163.11 121.74 L 161.95 122.20 L 160.80 122.74 L 159.67 123.34 L 158.55 124.01 L 157.44 124.74 L 156.36 125.55 L 155.29 126.41 L 154.30 127.29 L 151.33 129.47 L 157.41 130.25 L 158.26 129.36 L 159.11 128.53 L 159.98 127.77 L 160.86 127.07 L 161.76 126.42 L 162.68 125.83 L 163.61 125.30 L 164.56 124.82 L 165.52 124.40 L 166.51 124.04 L 167.50 123.73 L 168.52 123.48 L 169.56 123.28 L 170.61 123.14 L 171.69 123.06 L 172.78 123.03 L 173.99 123.06 L 175.18 123.16 L 176.35 123.31 L 177.50 123.53 L 178.63 123.81 L 179.74 124.16 L 180.83 124.56 L 181.90 125.03 L 182.96 125.56 L 183.99 126.16 L 185.01 126.82 L 186.00 127.54 L 186.99 128.33 L 187.95 129.18 L 188.89 130.09 L 189.83 131.09 Z" fill="#0d0d0d" stroke="none" /><line x1="212.3" y1="113.7" x2="240.4" y2="109.8" stroke="#4c2614" stroke-width="2.29" stroke-linecap="round" /><defs><clipPath id="eye-r"><path d="M 209.5 130.5 Q 217.1 122.1 227.2 122.1 Q 236.4 122.1 243.3 129.6 Q 235.3 141.7 224.7 141.7 Q 216.0 141.7 209.5 130.5 Z" /></clipPath></defs><path d="M 209.5 130.5 Q 217.1 122.1 227.2 122.1 Q 236.4 122.1 243.3 129.6 Q 235.3 141.7 224.7 141.7 Q 216.0 141.7 209.5 130.5 Z" fill="white" stroke="none" /><g clip-path="url(#eye-r)"><circle cx="226.4" cy="131.0" r="9.3" fill="#5a4217" /><circle cx="226.4" cy="131.0" r="7.8" fill="#c9963f" /><path d="M 218.85 129.03 A 7.78 7.78 0 0 1 233.91 129.03 Z" fill="#896323" /><circle cx="226.4" cy="131.9" r="4.2" fill="#241a09" /><circle cx="222.5" cy="126.5" r="3.1" fill="white" /><circle cx="229.6" cy="134.9" r="1.5" fill="white" opacity="0.85" /></g><path d="M 243.26 129.62 L 242.26 131.08 L 241.23 132.45 L 240.19 133.72 L 239.13 134.90 L 238.04 135.98 L 236.94 136.97 L 235.81 137.86 L 234.66 138.67 L 233.49 139.37 L 232.29 139.98 L 231.08 140.50 L 229.84 140.93 L 228.59 141.26 L 227.31 141.49 L 226.01 141.63 L 224.69 141.68 L 223.61 141.64 L 222.55 141.51 L 221.50 141.29 L 220.47 140.98 L 219.46 140.59 L 218.47 140.10 L 217.49 139.53 L 216.53 138.88 L 215.59 138.13 L 214.67 137.30 L 213.77 136.38 L 212.88 135.37 L 212.01 134.27 L 211.15 133.09 L 210.32 131.82 L 209.50 130.46" fill="none" stroke="#0d0d0d" stroke-width="1.27" stroke-linecap="round" /><path d="M 243.26 129.62 L 242.26 131.08 L 241.23 132.45 L 240.19 133.72 L 239.13 134.90 L 238.04 135.98 L 236.94 136.97 L 235.81 137.86 L 234.66 138.67" fill="none" stroke="#0d0d0d" stroke-width="1.47" stroke-linecap="round" /><path d="M 208.83 129.83 L 209.80 128.81 L 210.81 127.83 L 211.83 126.92 L 212.88 126.08 L 213.96 125.30 L 215.03 124.56 L 216.12 123.86 L 217.24 123.22 L 218.39 122.64 L 219.57 122.13 L 220.77 121.68 L 222.01 121.29 L 223.27 120.97 L 224.56 120.71 L 225.88 120.52 L 227.22 120.40 L 228.46 120.34 L 229.68 120.35 L 230.90 120.41 L 232.12 120.54 L 233.32 120.74 L 234.52 121.01 L 235.71 121.34 L 236.89 121.74 L 238.05 122.20 L 239.20 122.74 L 240.33 123.34 L 241.45 124.01 L 242.56 124.74 L 243.64 125.55 L 244.71 126.41 L 245.70 127.29 L 248.67 129.47 L 242.59 130.25 L 241.74 129.36 L 240.89 128.53 L 240.02 127.77 L 239.14 127.07 L 238.24 126.42 L 237.32 125.83 L 236.39 125.30 L 235.44 124.82 L 234.48 124.40 L 233.49 124.04 L 232.50 123.73 L 231.48 123.48 L 230.44 123.28 L 229.39 123.14 L 228.31 123.06 L 227.22 123.03 L 226.01 123.06 L 224.82 123.16 L 223.65 123.31 L 222.50 123.53 L 221.37 123.81 L 220.26 124.16 L 219.17 124.56 L 218.10 125.03 L 217.04 125.56 L 216.01 126.16 L 214.99 126.82 L 214.00 127.54 L 213.01 128.33 L 212.05 129.18 L 211.11 130.09 L 210.17 131.09 Z" fill="#0d0d0d" stroke="none" /><path d="M 193.67 149.37 Q 195.89 150.70 198.11 151.59" fill="none" stroke="#0d0d0d" stroke-width="1.27" opacity="0.75" stroke-linecap="round" /><path d="M 206.33 149.37 Q 204.11 150.70 201.89 151.59" fill="none" stroke="#0d0d0d" stroke-width="1.27" opacity="0.75" stroke-linecap="round" /><path d="M 189.8 164.4 Q 200.0 163.8 210.2 164.4" fill="none" stroke="#0d0d0d" stroke-width="1.34" stroke-linecap="round" />
  <path d="M 151.0 206.5 Q 140.7 188.1 137.6 167.0 Q 137.0 141.9 140.5 115.2 Q 160.4 109.1 178.8 99.3 Q 194.4 89.8 206.9 75.7 Q 216.0 90.7 229.6 101.4 Q 242.0 110.2 256.4 116.2 Q 259.7 140.2 259.3 163.9 Q 259.0 165.3 252.9 165.3 Q 259.1 165.3 259.1 166.9 Q 255.8 188.6 245.5 206.6 Q 246.7 206.5 247.8 206.4 Q 259.5 206.1 267.7 200.9 Q 275.8 206.3 275.9 203.6 Q 280.7 201.5 284.9 198.7 Q 288.5 195.6 290.1 191.4 Q 282.8 126.0 279.9 95.3 Q 276.0 79.9 267.5 66.2 Q 259.1 54.1 247.2 45.2 Q 237.4 38.4 226.0 35.3 Q 209.4 32.5 192.7 31.0 Q 177.0 31.6 162.2 37.8 Q 151.4 43.2 142.2 51.0 Q 132.9 59.9 126.3 71.0 Q 120.3 82.2 117.0 94.5 Q 113.6 126.6 106.5 191.6 Q 108.3 195.7 112.0 198.8 Q 115.8 201.9 121.1 203.7 Q 121.5 206.1 129.3 201.2 Q 137.2 205.4 147.3 206.6 Q 149.2 206.5 151.0 206.5 Z" fill="#a85a35" /><path d="M 151.0 206.5 Q 140.7 188.1 137.6 167.0 Q 137.0 141.9 140.5 115.2 Q 160.4 109.1 178.8 99.3 Q 194.4 89.8 206.9 75.7 Q 216.0 90.7 229.6 101.4 Q 242.0 110.2 256.4 116.2 Q 259.7 140.2 259.3 163.9 Q 259.0 165.3 252.9 165.3 Q 259.1 165.3 259.1 166.9 Q 255.8 188.6 245.5 206.6" fill="none" stroke="#0d0d0d" stroke-width="2.16" stroke-linecap="round" stroke-linejoin="round" /><path d="M 247.8 206.4 Q 259.5 206.1 267.7 200.9 Q 275.8 206.3 275.9 203.6 Q 280.7 201.5 284.9 198.7 Q 288.5 195.6 290.1 191.4 Q 282.8 126.0 279.9 95.3 Q 276.0 79.9 267.5 66.2 Q 259.1 54.1 247.2 45.2 Q 237.4 38.4 226.0 35.3" fill="none" stroke="#0d0d0d" stroke-width="2.16" stroke-linecap="round" /><path d="M 147.3 206.6 Q 137.2 205.4 129.3 201.2 Q 121.5 206.1 121.1 203.7 Q 115.8 201.9 112.0 198.8 Q 108.3 195.7 106.5 191.6 Q 113.6 126.6 117.0 94.5 Q 120.3 82.2 126.3 71.0 Q 132.9 59.9 142.2 51.0 Q 151.4 43.2 162.2 37.8 Q 177.0 31.6 192.7 31.0 Q 209.4 32.5 226.0 35.3" fill="none" stroke="#0d0d0d" stroke-width="2.16" stroke-linecap="round" /><path d="M 179.8 66.7 Q 158.2 86.9 142.1 111.9" fill="none" stroke="#0d0d0d" stroke-width="0.87" stroke-linecap="round" clip-path="url(#hair-front)" /><path d="M 222.9 65.4 Q 244.4 85.6 260.6 109.8" fill="none" stroke="#0d0d0d" stroke-width="0.87" stroke-linecap="round" clip-path="url(#hair-front)" /><path d="M 144.4 120.7 Q 140.1 153.4 142.2 186.1" fill="none" stroke="#0d0d0d" stroke-width="0.87" stroke-linecap="round" clip-path="url(#hair-front)" /><path d="M 255.6 120.7 Q 259.9 153.4 257.8 186.1" fill="none" stroke="#0d0d0d" stroke-width="0.87" stroke-linecap="round" clip-path="url(#hair-front)" />
  <path d="M 113.4 97.7 A 86.6 72.1 0 0 1 286.6 97.7 Q 200.0 117.9 113.4 97.7 Z" fill="#8d8064" stroke="#0d0d0d" stroke-width="2.16" /><ellipse cx="287.7" cy="74.5" rx="11.4" ry="9.4" fill="#8d8064" stroke="#0d0d0d" stroke-width="2.16" /><ellipse cx="292.3" cy="87.1" rx="11.4" ry="9.4" fill="#8d8064" stroke="#0d0d0d" stroke-width="2.16" />
</svg>
