<svg xmlns="http://www.w3.org/2000/svg" width="400" height="500" viewBox="0 0 400 500">
  <defs><clipPath id="hair-front"><path d="M 114.6 202.1 Q 106.7 182.7 110.2 158.1 Q 113.8 159.4 119.0 134.7 Q 124.3 110.1 138.4 120.7 Q 149.0 99.5 161.3 104.8 Q 168.3 129.5 175.4 138.3 Q 182.4 111.9 194.7 115.4 Q 203.5 133.0 212.3 129.5 Q 221.1 104.8 235.2 110.1 Q 245.8 127.7 254.6 124.2 Q 268.6 136.5 282.7 136.5 Q 286.2 159.4 289.8 158.1 Q 293.3 182.7 285.4 202.1 Q 289.8 186.2 292.4 180.9 Q 302.1 159.8 315.3 177.4 Q 317.9 154.5 310.9 157.6 Q 314.4 141.8 309.5 124.2 Q 292.5 91.3 264.3 69.0 Q 236.0 46.7 200.0 46.7 Q 164.0 46.7 135.7 69.0 Q 107.5 91.3 99.0 126.2 Q 85.6 141.8 89.1 157.6 Q 82.1 154.5 84.7 177.4 Q 97.9 159.8 107.6 180.9 Q 110.2 186.2 114.6 202.1 Z" /></clipPath></defs>
  <path d="M 90.5 124.2 Q 99.6 86.2 130.3 62.1 Q 161.0 37.9 200.0 37.9 Q 239.0 37.9 269.7 62.1 Q 300.4 86.2 309.5 124.2 Q 314.4 141.8 310.9 157.6 Q 317.9 154.5 315.3 177.4 Q 302.1 159.8 292.4 180.9 Q 289.8 186.2 285.4 202.1 Q 277.4 180.9 268.6 193.3 Q 259.8 198.5 247.5 223.2 Q 226.4 198.5 200.0 203.8 Q 173.6 198.5 152.5 223.2 Q 140.2 198.5 131.4 193.3 Q 122.6 180.9 114.6 202.1 Q 110.2 186.2 107.6 180.9 Q 97.9 159.8 84.7 177.4 Q 82.1 154.5 89.1 157.6 Q 85.6 141.8 90.5 124.2 Z" fill="#2f4a3c" /><path d="M 90.5 124.2 Q 99.6 86.2 130.3 62.1 Q 161.0 37.9 200.0 37.9 Q 239.0 37.9 269.7 62.1 Q 300.4 86.2 309.5 124.2 Q 314.4 141.8 310.9 157.6 Q 317.9 154.5 315.3 177.4 Q 302.1 159.8 292.4 180.9 Q 289.8 186.2 285.4 202.1 Q 277.4 180.9 268.6 193.3 Q 259.8 198.5 247.5 223.2 Q 226.4 198.5 200.0 203.8 Q 173.6 198.5 152.5 223.2 Q 140.2 198.5 131.4 193.3 Q 122.6 180.9 114.6 202.1 Q 110.2 186.2 107.6 180.9 Q 97.9 159.8 84.7 177.4 Q 82.1 154.5 89.1 157.6 Q 85.6 141.8 90.5 124.2 Z" fill="none" stroke="#0d0d0d" stroke-width="3.8" stroke-linecap="round" stroke-linejoin="round" />
  <rect x="179.8" y="225.4" width="40.3" height="40.5" rx="14.1" fill="#f2d4bb" /><line x1="179.8" y1="225.4" x2="179.8" y2="265.9" stroke="#0d0d0d" stroke-width="3.8" /><line x1="220.2" y1="225.4" x2="220.2" y2="265.9" stroke="#0d0d0d" stroke-width="3.8" />
  <path d="M 142.6 350.6 L 257.4 350.6 Q 257.4 410.2 255.0 435.7 Q 255.0 447.1 253.1 468.2 L 214.5 468.2 Q 210.2 435.7 200.0 393.8 Q 189.8 435.7 185.5 468.2 L 146.9 468.2 Q 145.0 447.1 145.0 435.7 Q 142.6 410.2 142.6 350.6 Z" fill="#2b2b27" stroke="#0d0d0d" stroke-width="3.8" stroke-linejoin="round" /><line x1="200.0" y1="355.8" x2="200.0" y2="393.8" stroke="#22221f" stroke-width="1.7" opacity="0.8" /><path d="M 145.0 357.5 Q 156.8 370.5 168.5 387.7" fill="none" stroke="#22221f" stroke-width="1.7" opacity="0.8" /><path d="M 255.0 357.5 Q 243.2 370.5 231.5 387.7" fill="none" stroke="#22221f" stroke-width="1.7" opacity="0.8" /><path d="M 187.4 457.8 L 187.4 468.2 Q 187.8 473.3 187.8 477.1 Q 187.8 485.0 180.0 485.0 L 137.6 485.0 Q 129.7 485.0 129.7 475.5 Q 131.1 475.3 138.6 472.6 Q 143.7 470.9 145.0 468.2 L 145.0 457.8 Z" fill="#4a3c2e" stroke="#0d0d0d" stroke-width="3.8" /><path d="M 187.8 481.0 L 129.7 481.0 L 129.7 477.1 Q 129.7 485.0 137.6 485.0 L 180.0 485.0 Q 187.8 485.0 187.8 477.1 Z" fill="#34291f" /><rect x="145.0" y="457.8" width="42.4" height="3.5" fill="#3a2e22" stroke="#0d0d0d" stroke-width="2.6" /><path d="M 155.6 461.4 L 176.8 461.4 Q 175.3 474.9 166.2 476.3 Q 157.1 474.9 155.6 461.4 Z" fill="#413427" stroke="#0d0d0d" stroke-width="2.1" /><line x1="177.2" y1="462.5" x2="155.2" y2="467.0" stroke="#211a14" stroke-width="1.5" stroke-linecap="round" /><line x1="155.2" y1="462.5" x2="177.2" y2="467.0" stroke="#211a14" stroke-width="1.5" stroke-linecap="round" /><line x1="177.2" y1="467.0" x2="155.2" y2="471.5" stroke="#211a14" stroke-width="1.5" stroke-linecap="round" /><line x1="155.2" y1="467.0" x2="177.2" y2="471.5" stroke="#211a14" stroke-width="1.5" stroke-linecap="round" /><line x1="177.2" y1="471.5" x2="155.2" y2="476.0" stroke="#211a14" stroke-width="1.5" stroke-linecap="round" /><line x1="155.2" y1="471.5" x2="177.2" y2="476.0" stroke="#211a14" stroke-width="1.5" stroke-linecap="round" /><path d="M 212.6 457.8 L 212.6 468.2 Q 212.2 473.3 212.2 477.1 Q 212.2 485.0 220.0 485.0 L 262.4 485.0 Q 270.3 485.0 270.3 475.5 Q 268.9 475.3 261.4 472.6 Q 256.3 470.9 255.0 468.2 L 255.0 457.8 Z" fill="#4a3c2e" stroke="#0d0d0d" stroke-width="3.8" /><path d="M 212.2 481.0 L 270.3 481.0 L 270.3 477.1 Q 270.3 485.0 262.4 485.0 L 220.0 485.0 Q 212.2 485.0 212.2 477.1 Z" fill="#34291f" /><rect x="212.6" y="457.8" width="42.4" height="3.5" fill="#3a2e22" stroke="#0d0d0d" stroke-width="2.6" /><path d="M 223.2 461.4 L 244.4 461.4 Q 242.9 474.9 233.8 476.3 Q 224.7 474.9 223.2 461.4 Z" fill="#413427" stroke="#0d0d0d" stroke-width="2.1" /><line x1="244.8" y1="462.5" x2="222.8" y2="467.0" stroke="#211a14" stroke-width="1.5" stroke-linecap="round" /><line x1="222.8" y1="462.5" x2="244.8" y2="467.0" stroke="#211a14" stroke-width="1.5" stroke-linecap="round" /><line x1="244.8" y1="467.0" x2="222.8" y2="471.5" stroke="#211a14" stroke-width="1.5" stroke-linecap="round" /><line x1="222.8" y1="467.0" x2="244.8" y2="471.5" stroke="#211a14" stroke-width="1.5" stroke-linecap="round" /><line x1="244.8" y1="471.5" x2="222.8" y2="476.0" stroke="#211a14" stroke-width="1.5" stroke-linecap="round" /><line x1="222.8" y1="471.5" x2="244.8" y2="476.0" stroke="#211a14" stroke-width="1.5" stroke-linecap="round" />
  <path d="M 122.3 348.8 L 101.7 413.7 Q 101.7 420.0 141.0 420.0 L 259.0 420.0 Q 298.3 420.0 298.3 413.7 L 277.7 348.8 Z" fill="#2b2b26" stroke="#0d0d0d" stroke-width="3.8" /><line x1="133.4" y1="348.8" x2="117.3" y2="413.7" stroke="#22221e" stroke-width="1.5" opacity="0.75" /><line x1="155.6" y1="348.8" x2="144.9" y2="413.7" stroke="#22221e" stroke-width="1.5" opacity="0.75" /><line x1="177.8" y1="348.8" x2="172.4" y2="413.7" stroke="#22221e" stroke-width="1.5" opacity="0.75" /><line x1="200.0" y1="348.8" x2="200.0" y2="413.7" stroke="#22221e" stroke-width="1.5" opacity="0.75" /><line x1="222.2" y1="348.8" x2="227.6" y2="413.7" stroke="#22221e" stroke-width="1.5" opacity="0.75" /><line x1="244.4" y1="348.8" x2="255.1" y2="413.7" stroke="#22221e" stroke-width="1.5" opacity="0.75" /><line x1="266.6" y1="348.8" x2="282.7" y2="413.7" stroke="#22221e" stroke-width="1.5" opacity="0.75" />
  <path d="M 122.9 287.8 L 104.4 287.8 L 104.4 354.9 Q 104.4 361.4 110.8 361.4 L 122.9 361.4 Z" fill="#2b2b26" stroke="#0d0d0d" stroke-width="3.8" /><path d="M 277.1 287.8 L 295.6 287.8 L 295.6 354.9 Q 295.6 361.4 289.2 361.4 L 277.1 361.4 Z" fill="#2b2b26" stroke="#0d0d0d" stroke-width="3.8" />
  <path d="M 183.9 243.7 Q 153.1 259.3 106.2 268.9 Q 103.4 279.3 107.2 287.8 L 122.6 287.8 Q 122.6 321.4 121.3 348.8 Q 120.5 349.8 120.5 350.6 L 279.5 350.6 Q 279.5 349.8 278.7 348.8 Q 277.4 321.4 277.4 287.8 L 292.8 287.8 Q 296.6 279.3 293.8 268.9 Q 258.1 251.3 216.1 243.7 L 200.0 259.8 Z" fill="#454639" stroke="#0d0d0d" stroke-width="3.8" /><path d="M 187.4 245.3 L 200.0 256.3 L 212.6 245.3" fill="none" stroke="#2a2a26" stroke-width="3.4" />
  <path d="M 187.5 252.8 L 125.0 266.8 Q 125.0 348.8 121.3 344.6 L 256.6 344.6 Z" fill="#2b2b26" stroke="#0d0d0d" stroke-width="2.6" /><path d="M 187.5 252.8 L 256.6 344.6" fill="none" stroke="#0d0d0d" stroke-width="3.0" stroke-linecap="round" />
  <rect x="119.0" y="337.8" width="162.1" height="31.3" rx="5.6" fill="#4b4239" stroke="#0d0d0d" stroke-width="3.8" /><rect x="119.0" y="357.3" width="162.1" height="11.9" rx="5.6" fill="#3c342c" opacity="0.8" /><rect x="186.8" y="355.1" width="26.3" height="17.2" rx="6.0" fill="#403830" stroke="#0d0d0d" stroke-width="2.6" /><path d="M 189.0 367.1 L 198.4 367.1 L 195.3 390.1 L 185.9 390.1 Z" fill="#403830" stroke="#0d0d0d" stroke-width="2.6" /><path d="M 201.6 367.1 L 211.0 367.1 L 214.1 386.1 L 204.7 386.1 Z" fill="#403830" stroke="#0d0d0d" stroke-width="2.6" />
  <path d="M 147.3 287.8 L 119.4 287.8 Q 118.9 321.4 116.8 348.8 Q 111.0 368.7 111.9 388.7 L 138.9 388.7 Q 139.7 368.7 144.3 348.8 Q 147.8 321.4 147.3 287.8 Z" fill="#2a2a26" stroke="#0d0d0d" stroke-width="3.8" /><path d="M 111.2 381.2 L 139.6 381.2 L 138.9 388.7 L 111.9 388.7 Z" fill="#22221e" stroke="#0d0d0d" stroke-width="3.2" /><path d="M 111.6 388.7 Q 109.7 399.9 115.5 409.1 Q 125.4 412.4 134.7 408.5 Q 139.4 405.0 137.2 400.9 Q 143.6 398.9 140.8 394.4 Q 138.9 392.0 139.2 388.7 Z" fill="#f2d4bb" stroke="#0d0d0d" stroke-width="3.2" /><path d="M 252.7 287.8 L 280.6 287.8 Q 281.1 321.4 283.2 348.8 Q 289.0 368.7 288.1 388.7 L 261.1 388.7 Q 260.3 368.7 255.7 348.8 Q 252.2 321.4 252.7 287.8 Z" fill="#2a2a26" stroke="#0d0d0d" stroke-width="3.8" /><path d="M 260.4 381.2 L 288.8 381.2 L 288.1 388.7 L 261.1 388.7 Z" fill="#22221e" stroke="#0d0d0d" stroke-width="3.2" /><path d="M 288.4 388.7 Q 290.3 399.9 284.5 409.1 Q 274.6 412.4 265.3 408.5 Q 260.6 405.0 262.8 400.9 Q 256.4 398.9 259.2 394.4 Q 261.1 392.0 260.8 388.7 Z" fill="#f2d4bb" stroke="#0d0d0d" stroke-width="3.2" />
  <path d="M 113.1 153.2 Q 108.1 153.5 104.9 158.7 Q 102.2 164.3 104.0 173.5 Q 106.7 180.0 110.7 184.8 Q 118.2 192.2 124.7 193.7 Z" fill="#f2d4bb" /><path d="M 113.1 153.2 Q 108.1 153.5 104.9 158.7 Q 102.2 164.3 104.0 173.5 Q 106.7 180.0 110.7 184.8 Q 118.2 192.2 124.7 193.7" fill="none" stroke="#0d0d0d" stroke-width="3.8" stroke-linecap="round" /><path d="M 106.6 169.6 Q 105.6 165.1 106.4 163.5 Q 107.3 162.5 108.9 163.7 Q 110.8 166.9 112.9 170.5 Q 110.9 170.6 112.6 178.1 Q 115.4 182.8 117.1 182.8" fill="none" stroke="#0d0d0d" stroke-width="2.1" stroke-linecap="round" /><path d="M 286.9 153.2 Q 291.9 153.5 295.1 158.7 Q 297.8 164.3 296.0 173.5 Q 293.3 180.0 289.3 184.8 Q 281.8 192.2 275.3 193.7 Z" fill="#f2d4bb" /><path d="M 286.9 153.2 Q 291.9 153.5 295.1 158.7 Q 297.8 164.3 296.0 173.5 Q 293.3 180.0 289.3 184.8 Q 281.8 192.2 275.3 193.7" fill="none" stroke="#0d0d0d" stroke-width="3.8" stroke-linecap="round" /><path d="M 293.4 169.6 Q 294.4 165.1 293.6 163.5 Q 292.7 162.5 291.1 163.7 Q 289.2 166.9 287.1 170.5 Q 289.1 170.6 287.4 178.1 Q 284.6 182.8 282.9 182.8" fill="none" stroke="#0d0d0d" stroke-width="2.1" stroke-linecap="round" />
  <path d="M 200.0 62.6 Q 236.1 62.6 261.6 88.3 Q 287.1 114.1 286.9 150.6 Q 286.4 187.1 260.8 213.0 Q 235.4 239.0 200.0 239.0 Q 164.6 239.0 139.2 213.0 Q 113.6 187.1 113.1 150.6 Q 112.9 114.1 138.4 88.3 Q 163.9 62.6 200.0 62.6 Z" fill="#f2d4bb" /><path d="M 139.2 213.0 Q 113.6 187.1 113.1 150.6 Q 112.9 114.1 138.4 88.3 Q 163.9 62.6 200.0 62.6 Q 236.1 62.6 261.6 88.3 Q 287.1 114.1 286.9 150.6 Q 286.4 187.1 260.8 213.0" fill="none" stroke="#0d0d0d" stroke-width="3.8" stroke-linecap="round" /><path d="M 260.8 213.0 Q 235.4 239.0 200.0 239.0 Q 164.6 239.0 139.2 213.0" fill="none" stroke="#0d0d0d" stroke-width="2.3" stroke-linecap="round" />
  <line x1="179.2" y1="140.7" x2="139.8" y2="137.4" stroke="#14211a" stroke-width="3.8" stroke-linecap="round" /><defs><clipPath id="eye-l"><path d="M 187.2 165.8 Q 177.6 145.0 158.1 145.0 Q 140.5 145.0 131.8 163.5 Q 141.9 184.4 162.3 184.4 Q 179.0 184.4 187.2 165.8 Z" /></clipPath></defs><path d="M 187.2 165.8 Q 177.6 145.0 158.1 145.0 Q 140.5 145.0 131.8 163.5 Q 141.9 184.4 162.3 184.4 Q 179.0 184.4 187.2 165.8 Z" fill="white" stroke="#0d0d0d" stroke-width="3.2" /><g clip-path="url(#eye-l)"><circle cx="159.5" cy="163.3" r="13.4" fill="#582b0f" /><circle cx="159.5" cy="163.3" r="11.2" fill="#c3672e" /><circle cx="159.5" cy="164.7" r="5.4" fill="#231106" /><circle cx="153.9" cy="156.9" r="4.6" fill="white" /><circle cx="164.2" cy="168.9" r="2.1" fill="white" opacity="0.85" /></g><path d="M 187.2 165.8 Q 177.6 145.0 158.1 145.0 Q 140.5 145.0 131.8 163.5" fill="none" stroke="#0d0d0d" stroke-width="6.0" stroke-linecap="round" /><line x1="220.8" y1="140.7" x2="260.2" y2="137.4" stroke="#14211a" stroke-width="3.8" stroke-linecap="round" /><defs><clipPath id="eye-r"><path d="M 212.8 165.8 Q 222.4 145.0 241.9 145.0 Q 259.5 145.0 268.2 163.5 Q 258.1 184.4 237.7 184.4 Q 221.0 184.4 212.8 165.8 Z" /></clipPath></defs><path d="M 212.8 165.8 Q 222.4 145.0 241.9 145.0 Q 259.5 145.0 268.2 163.5 Q 258.1 184.4 237.7 184.4 Q 221.0 184.4 212.8 165.8 Z" fill="white" stroke="#0d0d0d" stroke-width="3.2" /><g clip-path="url(#eye-r)"><circle cx="240.5" cy="163.3" r="13.4" fill="#582b0f" /><circle cx="240.5" cy="163.3" r="11.2" fill="#c3672e" /><circle cx="240.5" cy="164.7" r="5.4" fill="#231106" /><circle cx="234.9" cy="156.9" r="4.6" fill="white" /><circle cx="245.2" cy="168.9" r="2.1" fill="white" opacity="0.85" /></g><path d="M 212.8 165.8 Q 222.4 145.0 241.9 145.0 Q 259.5 145.0 268.2 163.5" fill="none" stroke="#0d0d0d" stroke-width="6.0" stroke-linecap="round" /><path d="M 191.8 199.0 Q 200.0 201.4 208.2 199.0" fill="none" stroke="#0d0d0d" stroke-width="3.2" stroke-linecap="round" /><ellipse cx="149.0" cy="189.3" rx="14.1" ry="7.9" fill="#e8879a" opacity="0.07" /><ellipse cx="251.0" cy="189.3" rx="14.1" ry="7.9" fill="#e8879a" opacity="0.07" />
  <path d="M 114.6 202.1 Q 106.7 182.7 110.2 158.1 Q 113.8 159.4 119.0 134.7 Q 124.3 110.1 138.4 120.7 Q 149.0 99.5 161.3 104.8 Q 168.3 129.5 175.4 138.3 Q 182.4 111.9 194.7 115.4 Q 203.5 133.0 212.3 129.5 Q 221.1 104.8 235.2 110.1 Q 245.8 127.7 254.6 124.2 Q 268.6 136.5 282.7 136.5 Q 286.2 159.4 289.8 158.1 Q 293.3 182.7 285.4 202.1 Q 289.8 186.2 292.4 180.9 Q 302.1 159.8 315.3 177.4 Q 317.9 154.5 310.9 157.6 Q 314.4 141.8 309.5 124.2 Q 292.5 91.3 264.3 69.0 Q 236.0 46.7 200.0 46.7 Q 164.0 46.7 135.7 69.0 Q 107.5 91.3 99.0 126.2 Q 85.6 141.8 89.1 157.6 Q 82.1 154.5 84.7 177.4 Q 97.9 159.8 107.6 180.9 Q 110.2 186.2 114.6 202.1 Z" fill="#2f4a3c" /><path d="M 114.6 202.1 Q 106.7 182.7 110.2 158.1 Q 113.8 159.4 119.0 134.7 Q 124.3 110.1 138.4 120.7 Q 149.0 99.5 161.3 104.8 Q 168.3 129.5 175.4 138.3 Q 182.4 111.9 194.7 115.4 Q 203.5 133.0 212.3 129.5 Q 221.1 104.8 235.2 110.1 Q 245.8 127.7 254.6 124.2 Q 268.6 136.5 282.7 136.5 Q 286.2 159.4 289.8 158.1 Q 293.3 182.7 285.4 202.1" fill="none" stroke="#0d0d0d" stroke-width="3.8" stroke-linecap="round" stroke-linejoin="round" /><path d="M 285.4 202.1 Q 289.8 186.2 292.4 180.9 Q 302.1 159.8 315.3 177.4 Q 317.9 154.5 310.9 157.6 Q 314.4 141.8 309.5 124.2" fill="none" stroke="#0d0d0d" stroke-width="3.8" stroke-linecap="round" /><path d="M 114.6 202.1 Q 110.2 186.2 107.6 180.9 Q 97.9 159.8 84.7 177.4 Q 82.1 154.5 89.1 157.6 Q 85.6 141.8 90.5 124.2" fill="none" stroke="#0d0d0d" stroke-width="3.8" stroke-linecap="round" /><path d="M 156.9 75.8 Q 141.0 94.3 134.9 117.1" fill="none" stroke="#0d0d0d" stroke-width="2.1" stroke-linecap="round" clip-path="url(#hair-front)" /><path d="M 186.8 82.8 Q 180.6 101.3 189.4 111.9" fill="none" stroke="#0d0d0d" stroke-width="2.1" stroke-linecap="round" clip-path="url(#hair-front)" /><path d="M 221.1 79.3 Q 225.5 96.0 231.7 108.3" fill="none" stroke="#0d0d0d" stroke-width="2.1" stroke-linecap="round" clip-path="url(#hair-front)" /><path d="M 245.8 79.3 Q 256.3 96.9 258.1 118.9" fill="none" stroke="#0d0d0d" stroke-width="2.1" stroke-linecap="round" clip-path="url(#hair-front)" /><path d="M 265.1 90.7 Q 283.6 111.9 293.3 134.7" fill="none" stroke="#0d0d0d" stroke-width="2.1" stroke-linecap="round" clip-path="url(#hair-front)" /><path d="M 138.4 88.1 Q 116.4 109.2 106.7 133.0" fill="none" stroke="#0d0d0d" stroke-width="2.1" stroke-linecap="round" clip-path="url(#hair-front)" /><path d="M 300.3 111.9 Q 305.6 154.1 300.3 159.8" fill="none" stroke="#0d0d0d" stroke-width="2.1" stroke-linecap="round" clip-path="url(#hair-front)" /><path d="M 99.7 111.9 Q 94.4 154.1 99.7 159.8" fill="none" stroke="#0d0d0d" stroke-width="2.1" stroke-linecap="round" clip-path="url(#hair-front)" />
  <ellipse cx="200.0" cy="51.1" rx="21.1" ry="16.7" fill="#2f4a3c" stroke="#0d0d0d" stroke-width="3.8" /><path d="M 182.0 65.5 L 218.0 65.5" fill="none" stroke="#0d0d0d" stroke-width="2.6" stroke-linecap="round" />
</svg>
