<svg xmlns="http://www.w3.org/2000/svg" width="400" height="500" viewBox="0 0 400 500">
  <defs><clipPath id="hair-tips"><path d="M 96.2 128.2 Q 121.7 155.5 147.3 182.8 Q 145.8 182.2 144.3 181.7 Q 142.8 181.0 141.4 180.3 Q 140.0 179.4 138.6 178.6 Q 137.3 177.6 136.0 176.6 Q 134.7 175.5 133.4 174.3 Q 132.3 175.6 131.2 176.8 Q 130.3 177.7 129.3 178.5 Q 128.6 179.1 127.9 179.6 Q 127.3 179.8 126.8 179.9 Q 126.4 179.8 126.1 179.6 Q 125.9 179.1 125.8 178.6 Q 125.0 178.0 124.1 177.5 Q 123.4 176.9 122.6 176.3 Q 121.9 175.6 121.1 174.9 Q 120.4 174.2 119.7 173.5 Q 119.1 172.7 118.4 171.9 Q 117.8 171.0 117.2 170.1 Q 116.6 169.2 116.1 168.3 Q 115.6 167.4 115.1 166.4 Q 114.6 165.4 114.1 164.4 Q 113.7 163.4 113.3 162.3 Q 113.0 161.2 112.6 160.1 Q 112.3 158.9 112.0 157.8 Q 113.1 144.7 114.1 131.7 Q 115.1 129.9 116.1 128.2 Q 116.9 128.2 117.8 128.2 Q 118.6 128.2 119.4 128.2 Q 120.0 128.2 120.7 128.2 Q 121.3 128.2 121.9 128.2 Q 122.5 128.2 123.0 128.2 Q 123.6 128.2 124.3 128.2 Q 124.9 128.2 125.6 128.2 Q 126.4 128.2 127.2 128.2 Q 128.0 128.2 128.8 128.2 Q 129.7 128.2 130.7 128.2 Q 131.7 128.2 132.8 128.2 Q 133.9 128.2 135.0 128.2 Q 136.3 128.2 137.5 128.2 Q 138.7 128.2 140.0 128.2 Q 141.4 128.2 142.7 128.2 Q 144.2 128.2 145.6 128.2 Q 147.1 128.2 148.5 128.2 Q 150.1 128.2 151.6 128.2 Q 153.1 128.2 154.7 128.2 Q 156.2 128.2 157.8 128.2 Q 159.5 128.2 161.1 128.2 Q 162.8 128.2 164.4 128.2 Q 166.8 128.2 169.1 128.2 Q 171.4 128.2 173.8 128.2 Q 176.2 128.2 178.5 128.2 Q 180.9 128.2 183.3 128.2 Q 185.8 128.2 188.2 128.2 Q 190.6 128.2 193.1 128.2 Q 195.7 128.2 198.3 128.2 Q 201.0 128.2 203.6 128.2 Q 206.2 128.2 208.8 128.2 Q 211.4 128.2 214.1 128.2 Q 216.7 128.2 219.3 128.2 Q 221.9 128.2 224.5 128.2 Q 226.2 128.2 228.0 128.2 Q 229.7 128.2 231.5 128.2 Q 233.2 128.2 234.8 128.2 Q 236.5 128.2 238.1 128.2 Q 239.7 128.2 241.3 128.2 Q 242.9 128.2 244.4 128.2 Q 246.3 128.2 248.1 128.2 Q 249.8 128.2 251.5 128.2 Q 253.2 128.2 254.8 128.2 Q 256.4 128.2 257.9 128.2 Q 259.4 128.2 260.8 128.2 Q 262.2 128.2 263.5 128.2 Q 264.8 128.2 266.1 128.2 Q 267.2 128.2 268.4 128.2 Q 269.4 128.2 270.4 128.2 Q 271.3 128.2 272.3 128.2 Q 273.0 128.2 273.8 128.2 Q 274.5 128.2 275.2 128.2 Q 275.7 128.2 276.2 128.2 Q 276.9 128.2 277.5 128.2 Q 278.2 128.2 279.0 128.2 Q 279.8 128.2 280.7 128.2 Q 281.7 129.8 282.6 131.4 Q 283.7 144.4 284.8 157.5 Q 284.5 158.7 284.3 159.9 Q 283.9 161.0 283.6 162.1 Q 283.2 163.2 282.8 164.3 Q 282.4 165.3 281.9 166.3 Q 281.5 167.3 281.0 168.2 Q 280.4 169.1 279.9 170.0 Q 279.2 170.8 278.6 171.6 Q 277.9 172.3 277.2 173.0 Q 276.5 173.8 275.8 174.5 Q 275.1 175.1 274.4 175.8 Q 273.7 176.5 272.9 177.1 Q 272.2 177.7 271.4 178.3 Q 271.3 178.9 271.2 179.5 Q 270.9 179.7 270.6 179.9 Q 270.0 179.7 269.5 179.6 Q 268.7 179.0 268.0 178.4 Q 267.1 177.5 266.1 176.5 Q 264.9 175.2 263.8 173.8 Q 262.4 175.2 261.1 176.5 Q 259.7 177.7 258.2 178.8 Q 256.7 179.7 255.2 180.6 Q 253.6 181.2 252.0 181.9 Q 250.3 182.3 248.6 182.8 Q 246.8 183.0 245.0 183.2 Q 274.4 155.7 303.8 128.2 Q 303.8 209.4 303.8 290.6 Q 200.0 290.6 96.2 290.6 Q 96.2 209.4 96.2 128.2 Z" /></clipPath><clipPath id="hair-front"><path d="M 153.9 227.4 Q 144.2 196.0 141.2 159.8 Q 140.7 133.6 144.0 108.5 Q 162.7 102.7 180.0 93.4 Q 194.7 84.5 206.5 71.3 Q 215.0 85.4 227.9 95.5 Q 239.6 103.8 253.1 109.4 Q 256.2 132.0 255.8 154.4 Q 255.5 156.9 249.8 156.9 Q 255.6 156.9 255.6 159.6 Q 252.5 196.7 242.9 227.5 Q 243.9 227.4 245.0 227.2 Q 256.0 226.7 263.8 217.9 Q 271.4 227.1 271.4 222.4 Q 276.0 218.8 279.9 214.1 Q 283.3 208.8 284.8 201.6 Q 278.0 118.6 275.2 89.7 Q 271.5 75.2 263.5 62.3 Q 255.7 51.0 244.4 42.5 Q 235.2 36.1 224.5 33.2 Q 208.9 30.6 193.1 29.2 Q 178.3 29.7 164.4 35.6 Q 154.3 40.6 145.6 48.0 Q 136.8 56.4 130.7 66.8 Q 125.0 77.4 121.9 89.0 Q 118.7 119.2 112.0 201.8 Q 113.7 209.0 117.2 214.2 Q 120.8 219.6 125.8 222.6 Q 126.2 226.8 133.4 218.4 Q 140.9 225.6 150.4 227.6 Q 152.2 227.5 153.9 227.4 Z" /></clipPath></defs>
  <path d="M 150.4 227.6 Q 140.9 225.6 133.4 218.4 Q 126.2 226.8 125.8 222.6 Q 120.8 219.6 117.2 214.2 Q 113.7 209.0 112.0 201.8 Q 118.7 119.2 121.9 89.0 Q 125.0 77.4 130.7 66.8 Q 136.8 56.4 145.6 48.0 Q 154.3 40.6 164.4 35.6 Q 178.3 29.7 193.1 29.2 Q 208.9 30.6 224.5 33.2 Q 235.2 36.1 244.4 42.5 Q 255.7 51.0 263.5 62.3 Q 271.5 75.2 275.2 89.7 Q 278.0 118.6 284.8 201.6 Q 283.3 208.8 279.9 214.1 Q 276.0 218.8 271.4 222.4 Q 271.4 227.1 263.8 217.9 Q 256.0 226.7 245.0 227.2 Q 197.7 237.8 150.4 227.6 Z" fill="#e3b448" /><path d="M 150.4 227.6 Q 140.9 225.6 133.4 218.4 Q 126.2 226.8 125.8 222.6 Q 120.8 219.6 117.2 214.2 Q 113.7 209.0 112.0 201.8 Q 118.7 119.2 121.9 89.0 Q 125.0 77.4 130.7 66.8 Q 136.8 56.4 145.6 48.0 Q 154.3 40.6 164.4 35.6 Q 178.3 29.7 193.1 29.2 Q 208.9 30.6 224.5 33.2 Q 235.2 36.1 244.4 42.5 Q 255.7 51.0 263.5 62.3 Q 271.5 75.2 275.2 89.7 Q 278.0 118.6 284.8 201.6 Q 283.3 208.8 279.9 214.1 Q 276.0 218.8 271.4 222.4 Q 271.4 227.1 263.8 217.9 Q 256.0 226.7 245.0 227.2 Q 197.7 237.8 150.4 227.6 Z" fill="#eceae3" clip-path="url(#hair-tips)" /><path d="M 150.4 227.6 Q 140.9 225.6 133.4 218.4 Q 126.2 226.8 125.8 222.6 Q 120.8 219.6 117.2 214.2 Q 113.7 209.0 112.0 201.8 Q 118.7 119.2 121.9 89.0 Q 125.0 77.4 130.7 66.8 Q 136.8 56.4 145.6 48.0 Q 154.3 40.6 164.4 35.6 Q 178.3 29.7 193.1 29.2 Q 208.9 30.6 224.5 33.2 Q 235.2 36.1 244.4 42.5 Q 255.7 51.0 263.5 62.3 Q 271.5 75.2 275.2 89.7 Q 278.0 118.6 284.8 201.6 Q 283.3 208.8 279.9 214.1 Q 276.0 218.8 271.4 222.4 Q 271.4 227.1 263.8 217.9 Q 256.0 226.7 245.0 227.2 Q 197.7 237.8 150.4 227.6 Z" fill="none" stroke="#0d0d0d" stroke-width="2.7" stroke-linecap="round" stroke-linejoin="round" />
  <rect x="182.3" y="162.3" width="35.5" height="37.3" rx="12.4" fill="#f6dbc2" /><line x1="182.3" y1="162.3" x2="182.3" y2="199.6" stroke="#0d0d0d" stroke-width="2.7" /><line x1="217.7" y1="162.3" x2="217.7" y2="199.6" stroke="#0d0d0d" stroke-width="2.7" />
  <path d="M 162.4 295.8 L 237.6 295.8 Q 237.6 315.1 237.4 323.4 Q 237.4 371.3 236.1 460.3 L 209.5 460.3 Q 208.1 323.4 200.0 303.5 Q 191.9 323.4 190.5 460.3 L 163.9 460.3 Q 162.6 371.3 162.6 323.4 Q 162.4 315.1 162.4 295.8 Z" fill="#f6dbc2" stroke="#0d0d0d" stroke-width="2.3" stroke-linejoin="round" /><path d="M 162.4 295.8 L 237.6 295.8 L 230.8 306.7 Q 200.0 307.9 169.2 306.7 Z" fill="#e8e4dc" stroke="#0d0d0d" stroke-width="2.3" stroke-linejoin="round" /><path d="M 191.8 416.5 L 191.8 460.3 Q 192.1 467.7 192.1 479.6 Q 192.1 485.0 186.7 485.0 L 157.4 485.0 Q 152.0 485.0 152.0 478.5 Q 153.0 470.7 158.2 466.7 Q 161.7 464.2 162.5 460.3 L 162.5 416.5 Z" fill="#6d4c33" stroke="#0d0d0d" stroke-width="2.7" /><path d="M 192.1 479.1 L 152.0 479.1 L 152.0 479.6 Q 152.0 485.0 157.4 485.0 L 186.7 485.0 Q 192.1 485.0 192.1 479.6 Z" fill="#4c3320" /><rect x="162.5" y="416.5" width="29.3" height="14.9" fill="#553924" stroke="#0d0d0d" stroke-width="1.9" /><path d="M 169.9 431.4 L 184.5 431.4 Q 183.5 470.2 177.2 472.1 Q 170.9 470.2 169.9 431.4 Z" fill="#604129" stroke="#0d0d0d" stroke-width="1.5" /><line x1="184.8" y1="436.2" x2="169.6" y2="448.0" stroke="#312115" stroke-width="1.1" stroke-linecap="round" /><line x1="169.6" y1="436.2" x2="184.8" y2="448.0" stroke="#312115" stroke-width="1.1" stroke-linecap="round" /><line x1="184.8" y1="448.0" x2="169.6" y2="459.8" stroke="#312115" stroke-width="1.1" stroke-linecap="round" /><line x1="169.6" y1="448.0" x2="184.8" y2="459.8" stroke="#312115" stroke-width="1.1" stroke-linecap="round" /><line x1="184.8" y1="459.8" x2="169.6" y2="471.6" stroke="#312115" stroke-width="1.1" stroke-linecap="round" /><line x1="169.6" y1="459.8" x2="184.8" y2="471.6" stroke="#312115" stroke-width="1.1" stroke-linecap="round" /><path d="M 208.2 416.5 L 208.2 460.3 Q 207.9 467.7 207.9 479.6 Q 207.9 485.0 213.3 485.0 L 242.6 485.0 Q 248.0 485.0 248.0 478.5 Q 247.0 470.7 241.8 466.7 Q 238.3 464.2 237.5 460.3 L 237.5 416.5 Z" fill="#6d4c33" stroke="#0d0d0d" stroke-width="2.7" /><path d="M 207.9 479.1 L 248.0 479.1 L 248.0 479.6 Q 248.0 485.0 242.6 485.0 L 213.3 485.0 Q 207.9 485.0 207.9 479.6 Z" fill="#4c3320" /><rect x="208.2" y="416.5" width="29.3" height="14.9" fill="#553924" stroke="#0d0d0d" stroke-width="1.9" /><path d="M 215.5 431.4 L 230.1 431.4 Q 229.1 470.2 222.8 472.1 Q 216.5 470.2 215.5 431.4 Z" fill="#604129" stroke="#0d0d0d" stroke-width="1.5" /><line x1="230.4" y1="436.2" x2="215.2" y2="448.0" stroke="#312115" stroke-width="1.1" stroke-linecap="round" /><line x1="215.2" y1="436.2" x2="230.4" y2="448.0" stroke="#312115" stroke-width="1.1" stroke-linecap="round" /><line x1="230.4" y1="448.0" x2="215.2" y2="459.8" stroke="#312115" stroke-width="1.1" stroke-linecap="round" /><line x1="215.2" y1="448.0" x2="230.4" y2="459.8" stroke="#312115" stroke-width="1.1" stroke-linecap="round" /><line x1="230.4" y1="459.8" x2="215.2" y2="471.6" stroke="#312115" stroke-width="1.1" stroke-linecap="round" /><line x1="215.2" y1="459.8" x2="230.4" y2="471.6" stroke="#312115" stroke-width="1.1" stroke-linecap="round" />
  <path d="M 155.7 259.6 L 137.9 391.0 Q 137.9 402.6 162.7 402.6 Q 200.0 412.4 237.3 402.6 Q 262.1 402.6 262.1 391.0 L 244.3 259.6 Z" fill="#54534f" stroke="#0d0d0d" stroke-width="2.7" /><path d="M 137.9 391.0 L 137.9 391.0 Q 137.9 402.6 162.7 402.6 Q 200.0 412.4 237.3 402.6 Q 262.1 402.6 262.1 391.0 L 262.1 391.0 Z" fill="#43423f" opacity="0.7" /><line x1="146.7" y1="381.2" x2="146.7" y2="391.0" stroke="#43423f" stroke-width="1.2" opacity="0.75" /><line x1="164.5" y1="381.2" x2="164.5" y2="391.0" stroke="#43423f" stroke-width="1.2" opacity="0.75" /><line x1="182.2" y1="381.2" x2="182.2" y2="391.0" stroke="#43423f" stroke-width="1.2" opacity="0.75" /><line x1="200.0" y1="381.2" x2="200.0" y2="391.0" stroke="#43423f" stroke-width="1.2" opacity="0.75" /><line x1="217.8" y1="381.2" x2="217.8" y2="391.0" stroke="#43423f" stroke-width="1.2" opacity="0.75" /><line x1="235.5" y1="381.2" x2="235.5" y2="391.0" stroke="#43423f" stroke-width="1.2" opacity="0.75" /><line x1="253.3" y1="381.2" x2="253.3" y2="391.0" stroke="#43423f" stroke-width="1.2" opacity="0.75" />
  <path d="M 155.7 259.6 L 127.8 369.7 Q 127.8 381.2 156.7 381.2 L 243.3 381.2 Q 272.2 381.2 272.2 369.7 L 244.3 259.6 Z" fill="#53654b" stroke="#0d0d0d" stroke-width="2.7" /><line x1="177.0" y1="296.1" x2="158.1" y2="381.2" stroke="#41513a" stroke-width="1.2" opacity="0.7" /><line x1="213.3" y1="296.1" x2="226.0" y2="381.2" stroke="#41513a" stroke-width="1.2" opacity="0.7" />
  <path d="M 176.6 176.3 Q 165.1 191.9 136.5 198.2 Q 130.2 199.2 135.9 201.8 L 161.1 213.5 Q 161.1 238.8 164.3 259.6 Q 147.4 279.5 147.4 295.8 L 252.6 295.8 Q 252.6 279.5 235.7 259.6 Q 238.9 238.8 238.9 213.5 L 264.1 201.8 Q 269.8 199.2 263.5 198.2 Q 243.3 185.8 223.4 176.3 L 217.7 176.3 L 217.7 180.1 L 200.0 199.1 L 182.3 180.1 L 182.3 176.3 Z" fill="#4a6845" stroke="#0d0d0d" stroke-width="2.7" />
  <path d="M 173.6 245.1 L 170.4 341.7 Q 170.4 345.8 174.6 345.8 L 225.4 345.8 Q 229.6 345.8 229.6 341.7 L 226.4 245.1 Z" fill="#6f5c4e" stroke="#0d0d0d" stroke-width="2.7" />
  <rect x="163.2" y="254.3" width="73.5" height="15.2" rx="2.7" fill="#5f4f42" stroke="#0d0d0d" stroke-width="2.7" /><rect x="163.2" y="263.7" width="73.5" height="5.8" rx="2.7" fill="#4c3e33" opacity="0.8" /><rect x="193.6" y="262.6" width="12.8" height="8.4" rx="2.9" fill="#524337" stroke="#0d0d0d" stroke-width="1.9" /><path d="M 194.7 268.5 L 199.2 268.5 L 197.7 293.4 L 193.2 293.4 Z" fill="#524337" stroke="#0d0d0d" stroke-width="1.9" /><path d="M 200.8 268.5 L 205.3 268.5 L 206.8 288.4 L 202.3 288.4 Z" fill="#524337" stroke="#0d0d0d" stroke-width="1.9" />
  <rect x="165.9" y="262.6" width="19.0" height="20.0" rx="3.4" fill="#564737" stroke="#0d0d0d" stroke-width="2.3" /><rect x="165.9" y="262.6" width="19.0" height="8.8" rx="3.4" fill="#47392b" stroke="#0d0d0d" stroke-width="2.3" /><circle cx="175.4" cy="271.4" r="1.9" fill="#2b231a" /><rect x="215.0" y="262.6" width="19.0" height="20.0" rx="3.4" fill="#564737" stroke="#0d0d0d" stroke-width="2.3" /><rect x="215.0" y="262.6" width="19.0" height="8.8" rx="3.4" fill="#47392b" stroke="#0d0d0d" stroke-width="2.3" /><circle cx="224.6" cy="271.4" r="1.9" fill="#2b231a" />
  <path d="M 161.2 213.5 L 134.6 201.2 Q 134.2 233.3 132.1 259.6 Q 126.7 283.0 127.5 306.4 L 153.2 306.4 Q 153.9 283.0 158.3 259.6 Q 161.6 238.8 161.2 213.5 Z" fill="#ab9e86" stroke="#0d0d0d" stroke-width="2.7" /><path d="M 126.8 299.4 L 153.8 299.4 L 153.2 306.4 L 127.5 306.4 Z" fill="#897e69" stroke="#0d0d0d" stroke-width="2.3" /><path d="M 127.2 306.4 Q 125.4 317.1 130.9 325.8 Q 140.3 328.9 149.2 325.3 Q 153.7 322.0 151.6 318.1 Q 157.6 316.1 155.0 311.9 Q 153.2 309.5 153.4 306.4 Z" fill="#f6dbc2" stroke="#0d0d0d" stroke-width="2.3" /><path d="M 238.8 213.5 L 265.4 201.2 Q 265.8 233.3 267.9 259.6 Q 273.3 283.0 272.5 306.4 L 246.8 306.4 Q 246.1 283.0 241.7 259.6 Q 238.4 238.8 238.8 213.5 Z" fill="#ab9e86" stroke="#0d0d0d" stroke-width="2.7" /><path d="M 246.2 299.4 L 273.2 299.4 L 272.5 306.4 L 246.8 306.4 Z" fill="#897e69" stroke="#0d0d0d" stroke-width="2.3" /><path d="M 272.8 306.4 Q 274.6 317.1 269.1 325.8 Q 259.7 328.9 250.8 325.3 Q 246.3 322.0 248.4 318.1 Q 242.4 316.1 245.0 311.9 Q 246.8 309.5 246.6 306.4 Z" fill="#f6dbc2" stroke="#0d0d0d" stroke-width="2.3" />
  <path d="M 137.4 110.4 Q 133.8 110.6 131.5 114.3 Q 129.5 118.3 130.8 124.9 Q 132.8 129.6 135.6 133.1 Q 141.1 138.4 145.8 139.5 Z" fill="#f6dbc2" /><path d="M 137.4 110.4 Q 133.8 110.6 131.5 114.3 Q 129.5 118.3 130.8 124.9 Q 132.8 129.6 135.6 133.1 Q 141.1 138.4 145.8 139.5" fill="none" stroke="#0d0d0d" stroke-width="2.7" stroke-linecap="round" /><path d="M 132.7 122.1 Q 132.0 118.9 132.5 117.8 Q 133.2 117.0 134.4 117.9 Q 135.8 120.2 137.3 122.8 Q 135.8 122.9 137.1 128.3 Q 139.0 131.7 140.3 131.7" fill="none" stroke="#0d0d0d" stroke-width="1.5" stroke-linecap="round" /><path d="M 262.6 110.4 Q 266.2 110.6 268.5 114.3 Q 270.5 118.3 269.2 124.9 Q 267.2 129.6 264.4 133.1 Q 258.9 138.4 254.2 139.5 Z" fill="#f6dbc2" /><path d="M 262.6 110.4 Q 266.2 110.6 268.5 114.3 Q 270.5 118.3 269.2 124.9 Q 267.2 129.6 264.4 133.1 Q 258.9 138.4 254.2 139.5" fill="none" stroke="#0d0d0d" stroke-width="2.7" stroke-linecap="round" /><path d="M 267.3 122.1 Q 268.0 118.9 267.5 117.8 Q 266.8 117.0 265.6 117.9 Q 264.2 120.2 262.7 122.8 Q 264.2 122.9 262.9 128.3 Q 261.0 131.7 259.7 131.7" fill="none" stroke="#0d0d0d" stroke-width="1.5" stroke-linecap="round" />
  <path d="M 200.0 45.1 Q 226.0 45.1 244.4 63.6 Q 262.8 82.2 262.6 108.5 Q 262.2 134.8 243.8 153.5 Q 225.5 172.2 200.0 172.2 Q 174.5 172.2 156.2 153.5 Q 137.8 134.8 137.4 108.5 Q 137.2 82.2 155.6 63.6 Q 174.0 45.1 200.0 45.1 Z" fill="#f6dbc2" /><path d="M 156.2 153.5 Q 137.8 134.8 137.4 108.5 Q 137.2 82.2 155.6 63.6 Q 174.0 45.1 200.0 45.1 Q 226.0 45.1 244.4 63.6 Q 262.8 82.2 262.6 108.5 Q 262.2 134.8 243.8 153.5" fill="none" stroke="#0d0d0d" stroke-width="2.7" stroke-linecap="round" /><path d="M 243.8 153.5 Q 225.5 172.2 200.0 172.2 Q 174.5 172.2 156.2 153.5" fill="none" stroke="#0d0d0d" stroke-width="1.6" stroke-linecap="round" />
  <line x1="187.1" y1="100.2" x2="156.2" y2="96.8" stroke="#664f1b" stroke-width="2.3" stroke-linecap="round" /><defs><clipPath id="eye-l"><path d="M 192.0 119.3 Q 186.2 104.5 170.6 104.5 Q 156.5 104.5 151.3 117.9 Q 157.4 133.0 173.7 133.0 Q 187.0 133.0 192.0 119.3 Z" /></clipPath></defs><path d="M 192.0 119.3 Q 186.2 104.5 170.6 104.5 Q 156.5 104.5 151.3 117.9 Q 157.4 133.0 173.7 133.0 Q 187.0 133.0 192.0 119.3 Z" fill="white" stroke="#0d0d0d" stroke-width="2.3" /><g clip-path="url(#eye-l)"><circle cx="171.6" cy="117.2" r="15.1" fill="#334129" /><circle cx="171.6" cy="117.2" r="12.7" fill="#74905e" /><circle cx="171.6" cy="118.8" r="6.2" fill="#141a10" /><circle cx="165.3" cy="110.0" r="5.1" fill="white" /><circle cx="176.9" cy="123.6" r="2.4" fill="white" opacity="0.85" /></g><path d="M 192.0 119.3 Q 186.2 104.5 170.6 104.5 Q 156.5 104.5 151.3 117.9" fill="none" stroke="#0d0d0d" stroke-width="2.3" stroke-linecap="round" /><line x1="212.9" y1="100.2" x2="243.8" y2="96.8" stroke="#664f1b" stroke-width="2.3" stroke-linecap="round" /><defs><clipPath id="eye-r"><path d="M 208.0 119.3 Q 213.8 104.5 229.4 104.5 Q 243.5 104.5 248.7 117.9 Q 242.6 133.0 226.3 133.0 Q 213.0 133.0 208.0 119.3 Z" /></clipPath></defs><path d="M 208.0 119.3 Q 213.8 104.5 229.4 104.5 Q 243.5 104.5 248.7 117.9 Q 242.6 133.0 226.3 133.0 Q 213.0 133.0 208.0 119.3 Z" fill="white" stroke="#0d0d0d" stroke-width="2.3" /><g clip-path="url(#eye-r)"><circle cx="228.4" cy="117.2" r="15.1" fill="#334129" /><circle cx="228.4" cy="117.2" r="12.7" fill="#74905e" /><circle cx="228.4" cy="118.8" r="6.2" fill="#141a10" /><circle cx="222.0" cy="110.0" r="5.1" fill="white" /><circle cx="233.7" cy="123.6" r="2.4" fill="white" opacity="0.85" /></g><path d="M 208.0 119.3 Q 213.8 104.5 229.4 104.5 Q 243.5 104.5 248.7 117.9" fill="none" stroke="#0d0d0d" stroke-width="2.3" stroke-linecap="round" /><path d="M 193.8 144.5 Q 200.0 144.5 206.2 144.5" fill="none" stroke="#0d0d0d" stroke-width="2.3" stroke-linecap="round" /><line x1="233.0" y1="144.0" x2="241.2" y2="130.6" stroke="#0d0d0d" stroke-width="1.6" stroke-linecap="round" opacity="0.6" /><line x1="234.9" y1="136.4" x2="239.9" y2="139.5" stroke="#0d0d0d" stroke-width="1.2" stroke-linecap="round" opacity="0.6" />
  <path d="M 153.9 227.4 Q 144.2 196.0 141.2 159.8 Q 140.7 133.6 144.0 108.5 Q 162.7 102.7 180.0 93.4 Q 194.7 84.5 206.5 71.3 Q 215.0 85.4 227.9 95.5 Q 239.6 103.8 253.1 109.4 Q 256.2 132.0 255.8 154.4 Q 255.5 156.9 249.8 156.9 Q 255.6 156.9 255.6 159.6 Q 252.5 196.7 242.9 227.5 Q 243.9 227.4 245.0 227.2 Q 256.0 226.7 263.8 217.9 Q 271.4 227.1 271.4 222.4 Q 276.0 218.8 279.9 214.1 Q 283.3 208.8 284.8 201.6 Q 278.0 118.6 275.2 89.7 Q 271.5 75.2 263.5 62.3 Q 255.7 51.0 244.4 42.5 Q 235.2 36.1 224.5 33.2 Q 208.9 30.6 193.1 29.2 Q 178.3 29.7 164.4 35.6 Q 154.3 40.6 145.6 48.0 Q 136.8 56.4 130.7 66.8 Q 125.0 77.4 121.9 89.0 Q 118.7 119.2 112.0 201.8 Q 113.7 209.0 117.2 214.2 Q 120.8 219.6 125.8 222.6 Q 126.2 226.8 133.4 218.4 Q 140.9 225.6 150.4 227.6 Q 152.2 227.5 153.9 227.4 Z" fill="#e3b448" /><path d="M 153.9 227.4 Q 144.2 196.0 141.2 159.8 Q 140.7 133.6 144.0 108.5 Q 162.7 102.7 180.0 93.4 Q 194.7 84.5 206.5 71.3 Q 215.0 85.4 227.9 95.5 Q 239.6 103.8 253.1 109.4 Q 256.2 132.0 255.8 154.4 Q 255.5 156.9 249.8 156.9 Q 255.6 156.9 255.6 159.6 Q 252.5 196.7 242.9 227.5 Q 243.9 227.4 245.0 227.2 Q 256.0 226.7 263.8 217.9 Q 271.4 227.1 271.4 222.4 Q 276.0 218.8 279.9 214.1 Q 283.3 208.8 284.8 201.6 Q 278.0 118.6 275.2 89.7 Q 271.5 75.2 263.5 62.3 Q 255.7 51.0 244.4 42.5 Q 235.2 36.1 224.5 33.2 Q 208.9 30.6 193.1 29.2 Q 178.3 29.7 164.4 35.6 Q 154.3 40.6 145.6 48.0 Q 136.8 56.4 130.7 66.8 Q 125.0 77.4 121.9 89.0 Q 118.7 119.2 112.0 201.8 Q 113.7 209.0 117.2 214.2 Q 120.8 219.6 125.8 222.6 Q 126.2 226.8 133.4 218.4 Q 140.9 225.6 150.4 227.6 Q 152.2 227.5 153.9 227.4 Z" fill="#eceae3" clip-path="url(#hair-tips)" /><path d="M 153.9 227.4 Q 144.2 196.0 141.2 159.8 Q 140.7 133.6 144.0 108.5 Q 162.7 102.7 180.0 93.4 Q 194.7 84.5 206.5 71.3 Q 215.0 85.4 227.9 95.5 Q 239.6 103.8 253.1 109.4 Q 256.2 132.0 255.8 154.4 Q 255.5 156.9 249.8 156.9 Q 255.6 156.9 255.6 159.6 Q 252.5 196.7 242.9 227.5" fill="none" stroke="#0d0d0d" stroke-width="2.7" stroke-linecap="round" stroke-linejoin="round" /><path d="M 245.0 227.2 Q 256.0 226.7 263.8 217.9 Q 271.4 227.1 271.4 222.4 Q 276.0 218.8 279.9 214.1 Q 283.3 208.8 284.8 201.6 Q 278.0 118.6 275.2 89.7 Q 271.5 75.2 263.5 62.3 Q 255.7 51.0 244.4 42.5 Q 235.2 36.1 224.5 33.2" fill="none" stroke="#0d0d0d" stroke-width="2.7" stroke-linecap="round" /><path d="M 150.4 227.6 Q 140.9 225.6 133.4 218.4 Q 126.2 226.8 125.8 222.6 Q 120.8 219.6 117.2 214.2 Q 113.7 209.0 112.0 201.8 Q 118.7 119.2 121.9 89.0 Q 125.0 77.4 130.7 66.8 Q 136.8 56.4 145.6 48.0 Q 154.3 40.6 164.4 35.6 Q 178.3 29.7 193.1 29.2 Q 208.9 30.6 224.5 33.2" fill="none" stroke="#0d0d0d" stroke-width="2.7" stroke-linecap="round" /><path d="M 181.0 62.8 Q 160.7 81.8 145.5 105.3" fill="none" stroke="#0d0d0d" stroke-width="1.5" stroke-linecap="round" clip-path="url(#hair-front)" /><path d="M 221.6 61.6 Q 241.8 80.6 257.1 103.4" fill="none" stroke="#0d0d0d" stroke-width="1.5" stroke-linecap="round" clip-path="url(#hair-front)" /><path d="M 127.5 115.6 Q 121.8 158.2 124.7 200.8" fill="none" stroke="#0d0d0d" stroke-width="1.5" stroke-linecap="round" clip-path="url(#hair-front)" /><path d="M 272.5 115.6 Q 278.2 158.2 275.3 200.8" fill="none" stroke="#0d0d0d" stroke-width="1.5" stroke-linecap="round" clip-path="url(#hair-front)" />
</svg>
